<svg id="Layer_1" data-name="Layer 1" xmlns="http://www.w3.org/2000/svg" viewBox="0 0 24.2 24.2"><defs><style>.cls-1{fill:none;stroke:#e1e1e1;stroke-miterlimit:10;}.cls-2{fill:#e1e1e1;}</style></defs><path class="cls-1" d="M24.1,12.5A11.6,11.6,0,1,1,12.5.9,11.6,11.6,0,0,1,24.1,12.5Z" transform="translate(-0.4 -0.4)"/><path class="cls-2" d="M11.92,19.66a.63.63,0,0,1-.46-.2L5.29,12.94a.64.64,0,0,1,.93-.88l5.62,6,8-11.56a.63.63,0,0,1,.88-.17.64.64,0,0,1,.16.89L12.44,19.39a.64.64,0,0,1-.47.27Z" transform="translate(-0.4 -0.4)"/></svg>